<svg width="13" height="13" viewBox="0 0 13 13" fill="none" xmlns="http://www.w3.org/2000/svg">
<path d="M6.5 0C10.0899 0 13 2.91005 13 6.5C13 10.0899 10.0899 13 6.5 13C2.91005 13 0 10.0899 0 6.5C0 2.91005 2.91005 0 6.5 0ZM6.5 0.90675C5.01658 0.90675 3.59391 1.49604 2.54497 2.54497C1.49604 3.59391 0.90675 5.01658 0.90675 6.5C0.90675 7.98342 1.49604 9.40609 2.54497 10.455C3.59391 11.504 5.01658 12.0932 6.5 12.0932C7.98342 12.0932 9.40609 11.504 10.455 10.455C11.504 9.40609 12.0932 7.98342 12.0932 6.5C12.0932 5.01658 11.504 3.59391 10.455 2.54497C9.40609 1.49604 7.98342 0.90675 6.5 0.90675ZM6.604 3.02315C7.306 3.02315 7.98005 3.2201 8.55595 3.58475C8.65192 3.65146 8.71845 3.75264 8.74166 3.86719C8.76487 3.98175 8.74298 4.10084 8.68054 4.19965C8.61811 4.29846 8.51995 4.36936 8.40652 4.39758C8.29309 4.42579 8.17315 4.40914 8.0717 4.3511C7.63261 4.0743 7.1237 3.92842 6.60465 3.93055C5.12395 3.93055 3.93055 5.0843 3.93055 6.5C3.93055 7.9157 5.12395 9.06945 6.60465 9.06945C7.1253 9.06945 7.6232 8.92645 8.05025 8.6619C8.10091 8.63053 8.15725 8.60945 8.21606 8.59985C8.27487 8.59026 8.33499 8.59234 8.393 8.60598C8.451 8.61962 8.50575 8.64455 8.55412 8.67935C8.60249 8.71415 8.64353 8.75814 8.6749 8.8088C8.70627 8.85946 8.72735 8.9158 8.73695 8.97461C8.74654 9.03342 8.74446 9.09355 8.73082 9.15155C8.71718 9.20955 8.69225 9.2643 8.65745 9.31267C8.62265 9.36104 8.57866 9.40208 8.528 9.43345C7.94996 9.79061 7.28348 9.97884 6.604 9.97685C4.62995 9.97685 3.02315 8.42335 3.02315 6.5C3.02315 4.57665 4.6293 3.02315 6.604 3.02315Z" fill="#E4E4E4"/>
</svg>
